/* XPM */
static char *_8b04070649b4c4f9a4b56c0985526faaRs3CI9sMqP1gBiD[] = {
/* columns rows colors chars-per-pixel */
"100 100 3 1 ",
"  c black",
". c #54430A",
"X c #D4AD22",
/* pixels */
"........X..X...............  ............... .......................................................",
".......X................................. ..................................X.......................",
"............X.......................................................................................",
"..................X.....................................................................X...........",
".............................. ................................ ....... ............................",
"...........X..........................................................................X.............",
"..........................X.........................................................................",
"................................ ...X.. ............................................................",
"..........XXX..XXX.XX.X.XXXXX.  . X..XX.......................................X.....................",
"........ XX XX  XXXXXXXXXXXXX   X   X..X . ....X ...XX.................... .....XX..................",
"........        X XXXXXXXXXXX X   X  X.X....... .X....X............. ....   . .XX...X...............",
"......          XXXXXXXXXXXX X XXX XXX.    X. X.X.X..XX.......... ..  .       XX XX..XX.XX..........",
"..... X          XXXXXXXXXXXXXXXXXXX  . X X....X. XXX..X...X........    .      XXXXXXX.XXXXX........",
".... .   .    XXXXXXXXXXXXXXXXXXX X XX  X.....X....X.X....X........  . ...  .  XXXXXXX.X...X........",
"X....X.       XXXXXXXXXXXXXXXXX    X  X .X ...X..X .XXX.X.....X.......   ..  .XXXXXXXXXX.XXX........",
"....... ... .  XXXXXXXXXXXXXXX XXXXXX  X ...  ..  X....X...X.X......  ..    ... XXXXXXXX..X.X.......",
".....  . ..   X XXXXXXXXXXXXXXXXXX  X X  ... . ..... XXXX.XXX... . ..  ... ......XXXXXXXXXX.........",
"........... .. XXXXXXXXXXXXXXXX XX X  XXX      .   . ...X.X... ... ..   .... . ...XXXXXXXX...X......",
"....... .....    XXXXXXXXXXXXXXX     XXX  X ..........X..XX X XX...   ...........XXXXXXXXX.XXX......",
"...... ....... XXXXXXXXXXXXXXXX X   X    X   . . .....X..X ..X.. .   ............. XXXXXXXXXX.......",
"......... ..... XXXXXXXXXXX XXX             .. . ..X........ X X ..  .............XXXXXXXXXXX.......",
"................XXXXXXXX XXXXXXX      XX     ..  ......X.X....X   .  .  ... ......XXXXXXXX.X .......",
"........... ... XXXXXXXXXXXXXX  X      X      . . ....X........X.      ............XXXXXXX. X.......",
"............ .   XX XXXXXXXXX    X X XX       X . .X...XX....X.       ..........X..XXXXXXX..........",
"...... ....X...XXXXXXXXXXXXX      X  X        XXX .....X..XX.XXX. XXXXX....X.X ..XXXXXXXXX..........",
"...... ...... .XXXXX  XXXXX         X             .X.X....X..X . .XXX.X......X...XXXXXXXXXX.........",
"...... . ....X .XX..X.XXXXX                X X XXXX.....X.. .. . X XX...........XX XXXXXXX.XXX......",
".......  .. .X. XXXXX  XXXXX           XX  XX X XXX.XX....X..X. ...X.X...XX......XXXXXXXXXXX X......",
"......  .. .XXX. . XX.X.XXXX        X  X XX  X  .XXXXX.XXX.....X.X XX....X.....X. X XXXXXXXX.XX.....",
"... .     .X.X...XXXX.XXXXX.X X.XX  XXX  XXX.X XXXXXXXX XX. ... XXX..X.........XX.XXXXXXXXXXX.......",
".....    .X X   .X.X.XXX.XXX  XXXXX.. X. XX ..XXX.XXXX.X..  ....XXX.X.X.........XXX.XXXXXXX.........",
".....    XXX   ..XX. X..XX.X..X .XX.  XX.X.X XX. .X X  ... . ...XXX.X.XX............XXXXXX..........",
".....    X . X.  X... X....XXX X.. XX....X.X  .X.. . X .. .... X XXXXXX..........XXXXXXXXXX..X......",
".... .           .XX.XX .XX .....X XX.....XX ..... X ..  ..XX...X.....X........X.X.XXXXXXXXX.  .....",
"......   XXX  X. .X.X ..X.X.X....X.XXXX.XXX.. . X...... ....X.. ...XX.............XXXXXXXXX.........",
".....X   XX        ..  .XX.X.X.X.X.. ..X..X.... X...   .. .XX .....X............X...XXXXXXX.........",
".....X XX XX          . ..X..X.....XX . X..XXX.....  ..... X........X..............XXXXXXXXX........",
".....       X          XXXX.XXX...XX..X....XX...  ...  X  X.  ................ .X.XXXXXXXXX. .......",
".....   XXX        .. XXXX.X.X...X....X....X. .X ....  . XXX......................X.XXXXXXXXX.......",
"..... X      X  . .....XX..X.X....X. .... .X.....   ... X  X .X...X............... .XXXXXXX.X ......",
".... .   X   X  .. ....XXXXX..X.XX... .X ...XX. ...X .  ... .........X...........XXXXXXXX . . ......",
".... XXXX       ... . .X....X.......X. ........ ..   ....   .............XX.X..XXXXXXXXXX  . .......",
"....XXXX XXXX  ....XX...X.....XX..X. X.. ........X.. .X.. .X.X.....X ........ . XXXX XXXXX .........",
".....XXXXXXXXX....X....X.......X.XXX . . ..... ...X.  X  XX ....  .....X ..XXXXX XXXXX X  XX........",
".... XX XXXXX ....X.X......X..XXXXX .  ........... X. .XXX ..X.. .. ..  XX    XX  XXXX X X. ........",
".....XXXXXXXXX...............XX..XX..  ........ ...   .  XXX.. .. .. .      X X      X X   X .......",
".....XXXXXXXXX..X...X.....X.X.XXXX XX. ............. XX    X XX.... .     X  XX XXX XX XX.X ........",
"...... X X X XXX.X....X..X...X.XXX.X ...............       X X X... .     X      XXXXXX  X .........",
".....XXX   XX X...X..  .XX.XX X....  . ......... ..  XXXXX  X X..XX          XX  XXXXX X   X .......",
".....XXXXXXX.X.........XX.XX XX.  X .   ......... .X   XX XX XX  XXX XXX  XXXX  XXX XX       . .....",
".....XXXXXXXXXX..X....XX.X.X XXX.XX. .. ...........  X      XXX  X X   XX  XX X XXX X  XXXX. .......",
".....X XXXXXX..X.......XX. X XX .......   .........   XX  X     XXXXXXXXXXXX X X   XXXXXX . ........",
".....XXXXXXXXX  XX.X.X .X  .   XX .     . .....  .    X   XXXXXX   XXXX XXXXXXX XX  XX   X .........",
"...... X    X...X...XXX   X...X...  . .  . .  ..                X XXXXXXXXX XXXXX X     X...........",
".....X    XX.. X.... X .X.. X .X..   .                      X   .XX... XXXX X XXX   X  X ...........",
".....X XXXX.. ..XX. ..X...X.  XX X.   ..     ..             X  .X ...X.X.XXXXX.X.X.XXX  ............",
"......X  ......X...X. .    .. . .X ...       . .               ...........XXX.XX X  ..  ............",
"......XXXX.X...X..X..   .  X.  .  .      . ..... ...         . .. ..........XXXXXX... . ............",
".....  .X........... .. ..X..X          .   .......         .  .........X...XX.XXX. X..X............",
".....XX.X..X.X...... .   .. .X.           . .......... ..  .  ............X...XX..XX.   ............",
"........X..... .. .X. .......  X.        .. ....... .   .   .................XXX...X.    ...........",
".......X........X. ....X ... .X  X       .. .... . . . .....................X.XXXX.. .. .... .......",
".......XX.........  . ...X...   X  . . .... . ........  . ..................X..XX..X.X . ...........",
".....X.X............ ... ....X   .  ................. .......................X. .. X X .. ... ......",
".....XXX..XX....X. .X. ....X..    . ... . ................................X..XXXX..XXX .............",
".......XXXX......X.. ..X.. .............. ........ X.......X.............X..X.X.XXXX.X. ............",
"......X.. .... .XXXX.  ................... ....... ........................XXXXXXXXXXXXXX ..........",
"...... X......XXXX....X. .... .............................................XXXXXXXXXX... .X. .......",
"......X...XX.XXXXXXXXX............................. .......................XXXXXXXXXX .X... ........",
".......XX.....XXXXXX.X.XXX......................X. ........................XXXXXXXXXX.. . . ........",
".........XX...XXXXXXXXXX.....X................XX.XX  X...............X..X..XXXXXXXX XX X............",
"......  ...XXXX XXXX. .X........ ........... X..X..X................. X...XXXXXXXXXXXXX.............",
"...... .. .X.XXX XXXXX......... ................... .... ....... ....X. .  XXXX XXXXXXXX.... .......",
"........   X.XXXXXXX..XX.X....................XX. .  .......X..X......XXXXXXXXXXXXXXXXXX ...........",
"......   . . XX XXXX..... ................. .X X...  XX ......X...... X   XXXXXXXXXXXXXXXX. ........",
"......  ..... X XXXX.X.X..XX...X..........X. .X .  .  XX . .......XX     XXXXXXXXXXX XXXXXXX........",
"..... . ..   .X ... X..X..X.XX. .... ..X.X.. X XX..   X.  ... ...X.X      XXXXXXXXXXXXXXXXXX........",
"...... ................X..X.. X..........X..            X..XX.....X.      XXXXXXXXXXXXXXXXXXX.......",
"...........  ... .......X..X.X.X..XX..X....X.            ..XXX.X .X X.    XXXXXXXXXXXXXXXX X.X......",
"............. .. XX....X..X..XXXX...X... .X.              X . ..XX. X     XXXXXXXXXXXX XXXX X.......",
"........ ............XXXX.X.XXXX.X...........           X X. XX.XX . .   XXXXXXXXXXXXX XXXXX........",
".................X...XX...XXXXXXXXX........ .              X.X . X . .  XXXXXXXXXXXXXXXXXX XX.......",
"..............X......XXX.XXXXXXXXX........   ... .       X XX. X   .    X XXXXXXXX.XXXX XXXXX.. .X..",
"...............X.X.X ...XXXXXXX XX......... . .... .   XXXX  ..X.X. . XXXXXXXX ..XX.XXXXXXXXX.......",
"...............XXXXXXX.XXXXX XXXXXXX..X.... .. .   .   XX XXX ..    X.XX XXXXXXX.....X XXXXXX.......",
"..............X..XXXXXXXXXXXXX XXXXXX.X.  ...X ..  ....X. X  X..X.X ...XXXXXXX ....X. .XXXXX........",
"................XXXXXXXXXXX XXXXXXXXX. .  ..  .....   XX .X.XX. XX...XXXXXXXX............  XX.......",
".............XX.XX XXXXXX XXXXXXXXXXX.. .. ...X ..X .  ...XX.XX X...XX. X. XX X.... .. .    ........",
"........ .....XXXXXXXXX  X XXXX XXXX   . ....   .X..  .XX.X.X.X.XXX. ..X.XX XX.X.......... X .......",
"........X....XXXXXXXX     XXXXXXXXXXX   .X..X...X. ....X..X.X..XX.X.X.X... XX......... ....XX.......",
".......X   XX   XXXXXX   XXXXXXXXXXXXX. .. . ...   .XX.X.X.XXXXX...X........XX...... . ...  . ......",
"......     XXX XX X     XX XXXXX XX X X  X X. . X..XXX.XX.X..X.X.XX..X......... . .. .... ..........",
"......        X XX       XXXXX X XX XXX  XX. ... .  XXX...X.XXXXX.X........... .......  ............",
".......        X     X  XXXX X  X  X     X X  .  X ..XXX.XX..XX......X........ ........ ............",
".........   .  ... . . .X  XXX X  X.X      X..  . ..X X....X.XX............X .......................",
"....................X..... ...X......    ..............X............................... ............",
"................................ .......................X..... .................... ................",
".................................. .................................................................",
"........................................ .................X.........................................",
"...................................................................................................."
};
