/* XPM */
static char *c1a59db6a3ce47b28684d50f431ecf0dKG6cWU3EUmToBhWh[] = {
/* columns rows colors chars-per-pixel */
"100 100 8 1 ",
"  c None",
". c black",
"X c gray29",
"o c #5A5A5A",
"O c #AD9929",
"+ c #C7B030",
"@ c gray87",
"# c white",
/* pixels */
"                                                                                                    ",
"                                                                                                    ",
"                                                                                                    ",
"                                                                                                    ",
"                                                                                                    ",
"                                                                                                    ",
"                                                                                                    ",
"                                                                                                    ",
"                                                                                                    ",
"                                                                                                    ",
"                                             .......                                                ",
"                                        .....+++++++...+                                            ",
"                                     ...+++++++++++++++..                                           ",
"                                  ...++++++++++++++++++++.+                                         ",
"                                ..++++++++++++++++++++++++..+                                       ",
"                              ..++++++++++++++++++++++++++++.+                                      ",
"                            ..+++++++++++++++++++++++++++++++.++                                    ",
"                           .+++++++++++++++++++++++++++++++++..++                                   ",
"                         ..++++++++++++++++++++++++++++++++++++..++                                 ",
"                        .++++++++++++++++++++++++++++++++++++++++.++                                ",
"                       .++++++++++++++++++++++++++++++++++++++++++.++                               ",
"                      .++++++++++++++++++++++++++++++++++++++++++++.++                              ",
"                     .++++++++++++++++++++++++++++++++++++++++++++++.+++                            ",
"                    .++++++++++++++++++++++++++++++++++++++++++++++++...+                           ",
"                    .++++++++++++++++++++++++++++++++++++++++++++++++++..+                          ",
"                   .++++++++++++++++++++++++++++++..++++++++++++++++++++.++                         ",
"                   .++++++++++++++++++++++++++++++++.....+++++++++++++++..++                        ",
"                   .++++++++++++++++++++++++++++++++++++++++++++++++++++++..+                       ",
"                  .+++++++++++++++++++++++++......++++++++++++++++++++++++++.+                      ",
"                  .++++++++++++++++++++++++++++++..........++++++++++++++++++.+                     ",
"                  .++++++++++++++++++++++++++++++++++........+++++++++++++++++.                     ",
"                  .+++++++++++++++++++++++++++++++++++++++++++++++++++++++++++...                   ",
"                  .++++++++++++++++++++++++++++++++++++++++++++++++++++++++++++++.                  ",
"                 .+++++++++++++++++++++++++++++++++++++++++++++++++++++++++++++++...                ",
"                 .+++++++++++++++++++++++++++++++++++++++++++++++++O++++++++++++++ .                ",
"                +.+++++++++++++++.....++++++++++++++++++++++++++.....++++++++++++++ ..              ",
"                .+++++++++++++++.@####.+++++++++++++++++++++++..@@#o#..++++++++++++  .              ",
"                .++++++++++++++.@@#o##@.+++++++++++++++++++++.###o#####.++++++++++++ ..             ",
"                .+++++++++++++.##o######.++++++++++++++++++++.##o##.#o#.++++++++++++  ..            ",
"               +.++++++++++++.##o##.#o#@#.++++++++++++++++++.#####...#o#.++++++++++++  .            ",
"              ++.++++++++++++.####...#o##.++++++++++++++++++.####.....o#.++++++++++++  .            ",
"              +.+++++++++++++.###.....o##.++++++++++++++++++.###@#...###.++++++++++++++.            ",
"              +.+++++++++++++.##@#...####.+++++++++++++++++++.#o###.#@#.+++++++++++++++..           ",
"              +.+++++++++++++.#o###.#@###.+++++++++++++++++++.###ooX###.+++++++++++++++.+.          ",
"              +.++++++++++++++.##ooX####.+++++++++++++++++++++..###@#..++++++++++++++++.+.          ",
"             ++.+++++++++++++++.###@#oo.++++++++++++++++++++++++.....++++++++++++++++++.+.          ",
"             +..++++++++++++++++.#####.++++++++++++++++++++++++++++++++++++++++++++++++.+.          ",
"             +.++++++++++++++++++.....+++++++++++++++++++++++++++++++++++++++++++++++++.+.          ",
"             +.++++++++++++++++++++++++++++++++++++++++++++++++++++++++++++++++++++++++. .          ",
"             +.++++++++++++++++++++++++++++++++++++++++++++++++++++++++++++++++++++++++. .          ",
"             +.++++++++++++++++++++++++++++++++++++++++++++++++++++++++++++++++++++++++. .          ",
"             +.+++++++++++####+++++++++++++++++++++++++++++++++++++++++++++++++++++++++. .          ",
"             +.++++++++########++++++++++++++++++++++++++++++++++++++++++++####++++++++. .          ",
"             +.++++++++#########++++++++++++++++++++++++++++++++++++++++########+++++++. .          ",
"             +.+++++++###########+++++++++++++++++++++++++++++++++++++++##########+++++. .          ",
"             +.++++++#########.####+++++++++++++++++++++++++++++++++++########.###+++++. .          ",
"              .++++++#######...######+++++++++++++++++++++++++++++###########..####++++. .          ",
"              .++++++#####.....#######+##+++++++++++++++++++++++#############.#####+++. ..          ",
"              .++++++#####.....##########+++++++++++++++++++++++############.######+++. .           ",
"              .++++++######.....############++++++++++++##++###############..######+++..            ",
"              .++++++#######....############+##+#+#+#+####################..#######+++..            ",
"              .+++++++#######..........#################################...#######++++.             ",
"              .++++++++######..........########################..######....#######++++.             ",
"              .+++++++########..........######################.......#....#######+++++.             ",
"              ..+++++++############.....#####################.............######++++++.             ",
"               .+++++++###############...######..###########.........###..######+++++.              ",
"               .++++++++##############...####......########.........##########+#+++++.              ",
"               .+++++++++++###########....#..........######........############++++++.              ",
"                .+++++++++++##########..............#.####.......#############+++++++.              ",
"                ..++++++++++###########...........##....#......##############+++++++.               ",
"                 .+++++++++++##########........#######.#......################++++++.               ",
"                 .++++++++++++#########.....###########.....############+####++++++.                ",
"                 ..++++++++++++########..################.##################++++++.                 ",
"                   .++++++++++++###########################################++++++ .                 ",
"                   . +++++++++++++++###################################+#++++++++..                 ",
"                     ++++++++++++++++##################################+++++++++.                   ",
"                     .++++++++++++++++#################################++++++++.                    ",
"                      .+++++++++++++++++##############################++++++++..                    ",
"                        ++++++++++++++++++#######################++++++++++++..                     ",
"                         +++++++++++++++++++##++#########+#+#+++++++++++++++.                       ",
"                          .+++++++++++++++++++###########+#++++++++++++++++..                       ",
"                            +++++++++++++++++++++###+#+#+++++++++++++++++..                         ",
"                              ++++++++++++++++++++++++++++++++++++++++++..                          ",
"                                ++++++++++++++++++++++++++++++++++++++...                           ",
"                                 .++++++++++++++++++++++++++++++++++ ..                             ",
"                                   ..+++++++++++++++++++++++++++++. .                               ",
"                                     ...++++++++++++++++++++++  ....                                ",
"                                         ........................                                   ",
"                                                 .......                                            ",
"                                                                                                    ",
"                                                                                                    ",
"                                                                                                    ",
"                                                                                                    ",
"                                                                                                    ",
"                                                                                                    ",
"                                                                                                    ",
"                                                                                                    ",
"                                                                                                    ",
"                                                                                                    ",
"                                                                                                    "
};
